<svg width="183" height="24" viewBox="0 0 183 24" fill="none" xmlns="http://www.w3.org/2000/svg">
<path d="M37.096 10.716L39.064 15H36.976L35.464 11.604H34.036L33.352 15H31.408L33.088 6.6H35.032L34.348 9.996H35.632L38.524 6.6H40.708L37.096 10.716ZM41.3019 8.544H43.1739L42.3699 12.468L46.2699 8.544H48.0339L46.7499 15H44.8659L45.6819 11.064L41.7819 15H40.0059L41.3019 8.544ZM55.5572 11.292C55.5572 11.588 55.5212 11.916 55.4492 12.276H50.5052C50.5692 13.156 51.1252 13.596 52.1732 13.596C52.5012 13.596 52.8132 13.544 53.1092 13.44C53.4132 13.336 53.6772 13.188 53.9012 12.996L54.6812 14.232C54.3212 14.52 53.9092 14.736 53.4452 14.88C52.9812 15.024 52.4932 15.096 51.9812 15.096C51.3172 15.096 50.7332 14.98 50.2292 14.748C49.7332 14.508 49.3492 14.168 49.0772 13.728C48.8132 13.288 48.6812 12.78 48.6812 12.204C48.6812 11.492 48.8412 10.852 49.1612 10.284C49.4892 9.708 49.9412 9.26 50.5172 8.94C51.0932 8.612 51.7492 8.448 52.4852 8.448C53.1092 8.448 53.6492 8.564 54.1052 8.796C54.5692 9.028 54.9252 9.36 55.1732 9.792C55.4292 10.224 55.5572 10.724 55.5572 11.292ZM52.4012 9.852C51.9612 9.852 51.5892 9.972 51.2852 10.212C50.9812 10.444 50.7652 10.768 50.6372 11.184H53.8412C53.8412 10.768 53.7092 10.444 53.4452 10.212C53.1892 9.972 52.8412 9.852 52.4012 9.852ZM61.7349 11.664C62.3109 11.896 62.5989 12.336 62.5989 12.984C62.5989 13.608 62.3389 14.1 61.8189 14.46C61.3069 14.82 60.5869 15 59.6589 15H56.1309L57.4269 8.544H60.6669C61.4109 8.544 61.9789 8.676 62.3709 8.94C62.7709 9.204 62.9709 9.584 62.9709 10.08C62.9709 10.44 62.8629 10.76 62.6469 11.04C62.4309 11.312 62.1269 11.52 61.7349 11.664ZM58.6149 11.196H60.0309C60.3669 11.196 60.6389 11.124 60.8469 10.98C61.0549 10.828 61.1589 10.632 61.1589 10.392C61.1589 10 60.8749 9.804 60.3069 9.804H58.8909L58.6149 11.196ZM59.6949 13.728C60.0629 13.728 60.3509 13.652 60.5589 13.5C60.7749 13.348 60.8829 13.144 60.8829 12.888C60.8829 12.688 60.8109 12.54 60.6669 12.444C60.5309 12.348 60.3189 12.3 60.0309 12.3H58.3989L58.1109 13.728H59.6949ZM64.5678 12.768C64.8878 12.768 65.1478 12.868 65.3478 13.068C65.5558 13.268 65.6598 13.528 65.6598 13.848C65.6598 14.016 65.6278 14.176 65.5638 14.328C65.5078 14.472 65.3998 14.668 65.2398 14.916L64.0398 16.848H62.8637L63.7878 14.916C63.6438 14.82 63.5278 14.696 63.4398 14.544C63.3598 14.384 63.3197 14.208 63.3197 14.016C63.3197 13.648 63.4398 13.348 63.6798 13.116C63.9198 12.884 64.2158 12.768 64.5678 12.768ZM79.6628 6.6L77.9828 15H76.0388L76.7228 11.58H72.9188L72.2348 15H70.2788L71.9588 6.6H73.9148L73.2548 9.9H77.0588L77.7188 6.6H79.6628ZM81.2394 8.544H83.1114L82.3074 12.468L86.2074 8.544H87.9714L86.6874 15H84.8034L85.6194 11.064L81.7194 15H79.9434L81.2394 8.544ZM97.0427 11.76L98.4707 15H96.2987L95.3747 12.516H94.5107L94.0067 15H92.1467L92.6387 12.516H91.7747L89.9147 15H87.6347L90.3827 11.604L89.1227 8.544H91.0667L92.0027 11.064H92.9267L93.4307 8.544H95.3027L94.7987 11.064H95.6507L97.6067 8.544H99.6587L97.0427 11.76ZM100.739 8.544H102.599L102.095 11.064H104.903L105.407 8.544H107.267L105.983 15H104.111L104.591 12.588H101.795L101.315 15H99.4434L100.739 8.544ZM109.071 8.544H110.943L110.139 12.468L114.039 8.544H115.803L114.519 15H112.635L113.451 11.064L109.551 15H107.775L109.071 8.544ZM117.603 8.544H119.475L118.671 12.468L122.571 8.544H124.335L123.051 15H121.167L121.983 11.064L118.083 15H116.307L117.603 8.544ZM121.083 7.836C120.459 7.836 119.987 7.72 119.667 7.488C119.347 7.248 119.187 6.9 119.187 6.444C119.187 6.276 119.203 6.124 119.235 5.988H120.447C120.431 6.1 120.423 6.176 120.423 6.216C120.423 6.432 120.491 6.6 120.627 6.72C120.763 6.84 120.951 6.9 121.191 6.9C121.759 6.9 122.111 6.596 122.247 5.988H123.483C123.363 6.612 123.103 7.076 122.703 7.38C122.311 7.684 121.771 7.836 121.083 7.836ZM133.84 11.664C134.416 11.896 134.704 12.336 134.704 12.984C134.704 13.608 134.444 14.1 133.924 14.46C133.412 14.82 132.692 15 131.764 15H128.236L129.532 8.544H132.772C133.516 8.544 134.084 8.676 134.476 8.94C134.876 9.204 135.076 9.584 135.076 10.08C135.076 10.44 134.968 10.76 134.752 11.04C134.536 11.312 134.232 11.52 133.84 11.664ZM130.72 11.196H132.136C132.472 11.196 132.744 11.124 132.952 10.98C133.16 10.828 133.264 10.632 133.264 10.392C133.264 10 132.98 9.804 132.412 9.804H130.996L130.72 11.196ZM131.8 13.728C132.168 13.728 132.456 13.652 132.664 13.5C132.88 13.348 132.988 13.144 132.988 12.888C132.988 12.688 132.916 12.54 132.772 12.444C132.636 12.348 132.424 12.3 132.136 12.3H130.504L130.216 13.728H131.8ZM143.561 8.544L142.277 15H140.501L140.621 14.364C140.085 14.852 139.425 15.096 138.641 15.096C138.137 15.096 137.673 14.98 137.249 14.748C136.825 14.516 136.485 14.184 136.229 13.752C135.981 13.312 135.857 12.796 135.857 12.204C135.857 11.492 136.013 10.852 136.325 10.284C136.645 9.708 137.077 9.26 137.621 8.94C138.165 8.612 138.765 8.448 139.421 8.448C140.413 8.448 141.113 8.772 141.521 9.42L141.689 8.544H143.561ZM139.217 13.548C139.585 13.548 139.913 13.46 140.201 13.284C140.489 13.1 140.713 12.848 140.873 12.528C141.033 12.208 141.113 11.84 141.113 11.424C141.113 10.984 140.981 10.636 140.717 10.38C140.461 10.124 140.101 9.996 139.637 9.996C139.269 9.996 138.941 10.088 138.653 10.272C138.365 10.448 138.141 10.696 137.981 11.016C137.821 11.336 137.741 11.704 137.741 12.12C137.741 12.56 137.869 12.908 138.125 13.164C138.389 13.42 138.753 13.548 139.217 13.548ZM151.556 8.544L150.26 15H148.388L149.372 10.068H147.32L147.044 11.22C146.812 12.164 146.576 12.916 146.336 13.476C146.096 14.036 145.808 14.452 145.472 14.724C145.136 14.996 144.724 15.132 144.236 15.132C143.94 15.132 143.612 15.084 143.252 14.988L143.66 13.452C143.804 13.468 143.9 13.476 143.948 13.476C144.308 13.476 144.592 13.284 144.8 12.9C145.016 12.516 145.22 11.924 145.412 11.124L146.036 8.544H151.556ZM153.033 12.768C153.353 12.768 153.613 12.868 153.813 13.068C154.021 13.268 154.125 13.528 154.125 13.848C154.125 14.016 154.093 14.176 154.029 14.328C153.973 14.472 153.865 14.668 153.705 14.916L152.505 16.848H151.329L152.253 14.916C152.109 14.82 151.993 14.696 151.905 14.544C151.825 14.384 151.785 14.208 151.785 14.016C151.785 13.648 151.905 13.348 152.145 13.116C152.385 12.884 152.681 12.768 153.033 12.768ZM166.328 7.86L163.88 10.056C164.488 10.184 164.96 10.432 165.296 10.8C165.64 11.168 165.812 11.628 165.812 12.18C165.812 12.748 165.648 13.26 165.32 13.716C164.992 14.164 164.524 14.516 163.916 14.772C163.316 15.02 162.616 15.144 161.816 15.144C161.128 15.144 160.488 15.06 159.896 14.892C159.304 14.724 158.812 14.488 158.42 14.184L159.392 12.696C160.128 13.24 160.992 13.512 161.984 13.512C162.568 13.512 163.024 13.404 163.352 13.188C163.68 12.972 163.844 12.672 163.844 12.288C163.844 11.696 163.368 11.4 162.416 11.4H161.408L161.66 10.116L163.832 8.16H159.968L160.28 6.6H166.58L166.328 7.86ZM175.534 6.6L175.294 7.86L170.53 15H168.37L172.894 8.184H169.93L169.654 9.552H167.938L168.526 6.6H175.534Z" fill="#FDA3C4"/>
<path d="M12 1C14.3869 1 16.6761 1.94821 18.364 3.63604C20.0518 5.32387 21 7.61305 21 10C21 13.726 18.16 17.63 12.6 21.8C12.4269 21.9298 12.2164 22 12 22C11.7836 22 11.5731 21.9298 11.4 21.8C5.84 17.63 3 13.726 3 10C3 7.61305 3.94821 5.32387 5.63604 3.63604C7.32387 1.94821 9.61305 1 12 1V1ZM12 3C10.1435 3 8.36301 3.7375 7.05025 5.05025C5.7375 6.36301 5 8.14348 5 10C5 12.71 7.118 15.836 11.448 19.306L12 19.742L12.552 19.306C16.882 15.836 19 12.71 19 10C19 8.14348 18.2625 6.36301 16.9497 5.05025C15.637 3.7375 13.8565 3 12 3ZM12 8C12.5304 8 13.0391 8.21071 13.4142 8.58579C13.7893 8.96086 14 9.46957 14 10C14 10.5304 13.7893 11.0391 13.4142 11.4142C13.0391 11.7893 12.5304 12 12 12C11.4696 12 10.9609 11.7893 10.5858 11.4142C10.2107 11.0391 10 10.5304 10 10C10 9.46957 10.2107 8.96086 10.5858 8.58579C10.9609 8.21071 11.4696 8 12 8V8Z" fill="#FDA3C4"/>
</svg>
