<svg width="162" height="24" viewBox="0 0 162 24" fill="none" xmlns="http://www.w3.org/2000/svg">
<path d="M41.504 12.532H39.428L39.02 14.572H37.46L37.868 12.532H35.792L36.08 11.068H38.156L38.564 9.028H40.124L39.716 11.068H41.792L41.504 12.532ZM50.1753 8.86L47.7273 11.056C48.3353 11.184 48.8073 11.432 49.1433 11.8C49.4873 12.168 49.6593 12.628 49.6593 13.18C49.6593 13.748 49.4953 14.26 49.1673 14.716C48.8393 15.164 48.3713 15.516 47.7633 15.772C47.1633 16.02 46.4633 16.144 45.6633 16.144C44.9753 16.144 44.3353 16.06 43.7433 15.892C43.1513 15.724 42.6593 15.488 42.2673 15.184L43.2393 13.696C43.9753 14.24 44.8393 14.512 45.8313 14.512C46.4153 14.512 46.8713 14.404 47.1993 14.188C47.5273 13.972 47.6913 13.672 47.6913 13.288C47.6913 12.696 47.2153 12.4 46.2633 12.4H45.2553L45.5073 11.116L47.6793 9.16H43.8153L44.1273 7.6H50.4273L50.1753 8.86ZM57.3417 11.716C57.6457 11.908 57.8777 12.148 58.0377 12.436C58.1977 12.724 58.2777 13.048 58.2777 13.408C58.2777 13.952 58.1177 14.432 57.7977 14.848C57.4777 15.256 57.0257 15.576 56.4417 15.808C55.8657 16.032 55.1977 16.144 54.4377 16.144C53.7417 16.144 53.1337 16.048 52.6137 15.856C52.0937 15.656 51.6897 15.376 51.4017 15.016C51.1217 14.656 50.9817 14.24 50.9817 13.768C50.9817 13.232 51.1337 12.768 51.4377 12.376C51.7417 11.976 52.1737 11.668 52.7337 11.452C52.2697 11.1 52.0377 10.616 52.0377 10C52.0377 9.496 52.1817 9.052 52.4697 8.668C52.7657 8.284 53.1777 7.988 53.7057 7.78C54.2417 7.564 54.8537 7.456 55.5417 7.456C56.1817 7.456 56.7417 7.548 57.2217 7.732C57.7017 7.916 58.0737 8.176 58.3377 8.512C58.6017 8.848 58.7337 9.24 58.7337 9.688C58.7337 10.144 58.6137 10.544 58.3737 10.888C58.1337 11.232 57.7897 11.508 57.3417 11.716ZM55.4457 8.884C54.9977 8.884 54.6377 8.988 54.3657 9.196C54.0937 9.396 53.9577 9.668 53.9577 10.012C53.9577 10.3 54.0777 10.532 54.3177 10.708C54.5657 10.884 54.8977 10.972 55.3137 10.972C55.7617 10.972 56.1217 10.872 56.3937 10.672C56.6657 10.464 56.8017 10.188 56.8017 9.844C56.8017 9.556 56.6777 9.324 56.4297 9.148C56.1897 8.972 55.8617 8.884 55.4457 8.884ZM54.5337 14.716C55.0857 14.716 55.5217 14.6 55.8417 14.368C56.1617 14.128 56.3217 13.808 56.3217 13.408C56.3217 13.072 56.1777 12.804 55.8897 12.604C55.6097 12.404 55.2177 12.304 54.7137 12.304C54.1697 12.304 53.7377 12.424 53.4177 12.664C53.1057 12.896 52.9497 13.212 52.9497 13.612C52.9497 13.948 53.0897 14.216 53.3697 14.416C53.6497 14.616 54.0377 14.716 54.5337 14.716ZM66.0824 16.144C65.1224 16.144 64.3704 15.864 63.8264 15.304C63.2824 14.736 63.0104 13.956 63.0104 12.964C63.0104 11.956 63.1984 11.032 63.5744 10.192C63.9504 9.352 64.4784 8.688 65.1584 8.2C65.8384 7.704 66.6104 7.456 67.4744 7.456C68.4424 7.456 69.1984 7.74 69.7424 8.308C70.2864 8.868 70.5584 9.644 70.5584 10.636C70.5584 11.644 70.3664 12.568 69.9824 13.408C69.6064 14.248 69.0784 14.916 68.3984 15.412C67.7184 15.9 66.9464 16.144 66.0824 16.144ZM66.2984 14.5C66.7384 14.5 67.1344 14.32 67.4864 13.96C67.8384 13.592 68.1104 13.116 68.3024 12.532C68.5024 11.948 68.6024 11.332 68.6024 10.684C68.6024 9.628 68.1584 9.1 67.2704 9.1C66.8304 9.1 66.4344 9.284 66.0824 9.652C65.7304 10.012 65.4544 10.484 65.2544 11.068C65.0624 11.652 64.9664 12.268 64.9664 12.916C64.9664 13.972 65.4104 14.5 66.2984 14.5ZM75.7208 10.732C76.2408 10.732 76.7168 10.828 77.1488 11.02C77.5808 11.212 77.9248 11.492 78.1808 11.86C78.4368 12.22 78.5648 12.652 78.5648 13.156C78.5648 13.764 78.4128 14.292 78.1088 14.74C77.8128 15.188 77.3968 15.536 76.8608 15.784C76.3248 16.024 75.7128 16.144 75.0248 16.144C73.9288 16.144 73.0728 15.848 72.4568 15.256C71.8408 14.656 71.5328 13.824 71.5328 12.76C71.5328 11.784 71.7368 10.896 72.1448 10.096C72.5608 9.288 73.1608 8.648 73.9448 8.176C74.7368 7.696 75.6768 7.456 76.7648 7.456C77.2688 7.456 77.7328 7.508 78.1568 7.612C78.5888 7.708 78.9488 7.852 79.2368 8.044L78.3488 9.46C78.1088 9.308 77.8528 9.2 77.5808 9.136C77.3088 9.072 76.9888 9.04 76.6208 9.04C75.8608 9.04 75.2168 9.256 74.6888 9.688C74.1608 10.112 73.8168 10.688 73.6568 11.416C74.1848 10.96 74.8728 10.732 75.7208 10.732ZM75.0248 14.704C75.5048 14.704 75.8928 14.584 76.1888 14.344C76.4848 14.104 76.6328 13.776 76.6328 13.36C76.6328 12.984 76.5048 12.692 76.2488 12.484C75.9928 12.276 75.6528 12.172 75.2288 12.172C74.7248 12.172 74.3128 12.3 73.9928 12.556C73.6728 12.812 73.5128 13.132 73.5128 13.516C73.5128 13.852 73.6448 14.136 73.9088 14.368C74.1728 14.592 74.5448 14.704 75.0248 14.704ZM87.1831 8.86L84.7351 11.056C85.3431 11.184 85.8151 11.432 86.1511 11.8C86.4951 12.168 86.6671 12.628 86.6671 13.18C86.6671 13.748 86.5031 14.26 86.1751 14.716C85.8471 15.164 85.3791 15.516 84.7711 15.772C84.1711 16.02 83.4711 16.144 82.6711 16.144C81.9831 16.144 81.3431 16.06 80.7511 15.892C80.1591 15.724 79.6671 15.488 79.2751 15.184L80.2471 13.696C80.9831 14.24 81.8471 14.512 82.8391 14.512C83.4231 14.512 83.8791 14.404 84.2071 14.188C84.5351 13.972 84.6991 13.672 84.6991 13.288C84.6991 12.696 84.2231 12.4 83.2711 12.4H82.2631L82.5151 11.116L84.6871 9.16H80.8231L81.1351 7.6H87.4351L87.1831 8.86ZM97.7479 11.716C98.0519 11.908 98.2839 12.148 98.4439 12.436C98.6039 12.724 98.6839 13.048 98.6839 13.408C98.6839 13.952 98.5239 14.432 98.2039 14.848C97.8839 15.256 97.4319 15.576 96.8479 15.808C96.2719 16.032 95.6039 16.144 94.8439 16.144C94.1479 16.144 93.5399 16.048 93.0199 15.856C92.4999 15.656 92.0959 15.376 91.8079 15.016C91.5279 14.656 91.3879 14.24 91.3879 13.768C91.3879 13.232 91.5399 12.768 91.8439 12.376C92.1479 11.976 92.5799 11.668 93.1399 11.452C92.6759 11.1 92.4439 10.616 92.4439 10C92.4439 9.496 92.5879 9.052 92.8759 8.668C93.1719 8.284 93.5839 7.988 94.1119 7.78C94.6479 7.564 95.2599 7.456 95.9479 7.456C96.5879 7.456 97.1479 7.548 97.6279 7.732C98.1079 7.916 98.4799 8.176 98.7439 8.512C99.0079 8.848 99.1399 9.24 99.1399 9.688C99.1399 10.144 99.0199 10.544 98.7799 10.888C98.5399 11.232 98.1959 11.508 97.7479 11.716ZM95.8519 8.884C95.4039 8.884 95.0439 8.988 94.7719 9.196C94.4999 9.396 94.3639 9.668 94.3639 10.012C94.3639 10.3 94.4839 10.532 94.7239 10.708C94.9719 10.884 95.3039 10.972 95.7199 10.972C96.1679 10.972 96.5279 10.872 96.7999 10.672C97.0719 10.464 97.2079 10.188 97.2079 9.844C97.2079 9.556 97.0839 9.324 96.8359 9.148C96.5959 8.972 96.2679 8.884 95.8519 8.884ZM94.9399 14.716C95.4919 14.716 95.9279 14.6 96.2479 14.368C96.5679 14.128 96.7279 13.808 96.7279 13.408C96.7279 13.072 96.5839 12.804 96.2959 12.604C96.0159 12.404 95.6239 12.304 95.1199 12.304C94.5759 12.304 94.1439 12.424 93.8239 12.664C93.5119 12.896 93.3559 13.212 93.3559 13.612C93.3559 13.948 93.4959 14.216 93.7759 14.416C94.0559 14.616 94.4439 14.716 94.9399 14.716ZM106.954 14.236H105.634L105.286 16H103.426L103.786 14.236H99.5623L99.8143 12.928L104.374 7.6H106.534L102.202 12.652H104.218L104.518 11.164H106.246L105.946 12.652H107.266L106.954 14.236ZM115.789 8.86L113.341 11.056C113.949 11.184 114.421 11.432 114.757 11.8C115.101 12.168 115.273 12.628 115.273 13.18C115.273 13.748 115.109 14.26 114.781 14.716C114.453 15.164 113.985 15.516 113.377 15.772C112.777 16.02 112.077 16.144 111.277 16.144C110.589 16.144 109.949 16.06 109.357 15.892C108.765 15.724 108.273 15.488 107.881 15.184L108.853 13.696C109.589 14.24 110.453 14.512 111.445 14.512C112.029 14.512 112.485 14.404 112.813 14.188C113.141 13.972 113.305 13.672 113.305 13.288C113.305 12.696 112.829 12.4 111.877 12.4H110.869L111.121 11.116L113.293 9.16H109.429L109.741 7.6H116.041L115.789 8.86ZM127.589 8.86L125.141 11.056C125.749 11.184 126.221 11.432 126.557 11.8C126.901 12.168 127.073 12.628 127.073 13.18C127.073 13.748 126.909 14.26 126.581 14.716C126.253 15.164 125.785 15.516 125.177 15.772C124.577 16.02 123.877 16.144 123.077 16.144C122.389 16.144 121.749 16.06 121.157 15.892C120.565 15.724 120.073 15.488 119.681 15.184L120.653 13.696C121.389 14.24 122.253 14.512 123.245 14.512C123.829 14.512 124.285 14.404 124.613 14.188C124.941 13.972 125.105 13.672 125.105 13.288C125.105 12.696 124.629 12.4 123.677 12.4H122.669L122.921 11.116L125.093 9.16H121.229L121.541 7.6H127.841L127.589 8.86ZM135.56 14.236H134.24L133.892 16H132.032L132.392 14.236H128.168L128.42 12.928L132.98 7.6H135.14L130.808 12.652H132.824L133.124 11.164H134.852L134.552 12.652H135.872L135.56 14.236ZM148.597 7.6L148.357 8.86L143.593 16H141.433L145.957 9.184H142.993L142.717 10.552H141.001L141.589 7.6H148.597ZM155.103 14.44L154.791 16H149.151L149.463 14.44H151.431L152.475 9.16H150.663L150.987 7.6H154.731L153.363 14.44H155.103Z" fill="#FDA3C4"/>
<path d="M6.8125 1C5.27031 1 4 2.24208 4 3.75V20.25C4 21.7579 5.27031 23 6.8125 23H16.1875C17.7297 23 19 21.7579 19 20.25V3.75C19 2.24208 17.7297 1 16.1875 1H6.8125ZM6.8125 2.83333H16.1875C16.7078 2.83333 17.125 3.24125 17.125 3.75V20.25C17.125 20.7588 16.7078 21.1667 16.1875 21.1667H6.8125C6.29219 21.1667 5.875 20.7588 5.875 20.25V3.75C5.875 3.24125 6.29219 2.83333 6.8125 2.83333ZM11.5 18.4167C11.2514 18.4167 11.0129 18.5132 10.8371 18.6852C10.6613 18.8571 10.5625 19.0902 10.5625 19.3333C10.5625 19.5764 10.6613 19.8096 10.8371 19.9815C11.0129 20.1534 11.2514 20.25 11.5 20.25C11.7486 20.25 11.9871 20.1534 12.1629 19.9815C12.3387 19.8096 12.4375 19.5764 12.4375 19.3333C12.4375 19.0902 12.3387 18.8571 12.1629 18.6852C11.9871 18.5132 11.7486 18.4167 11.5 18.4167Z" fill="#FDA3C4"/>
</svg>
