<svg width="20" height="16" viewBox="0 0 20 16" fill="none" xmlns="http://www.w3.org/2000/svg">
<path d="M2.05065 1.92C2.07076 1.6694 2.18452 1.43557 2.36928 1.26508C2.55404 1.09459 2.79624 0.999948 3.04765 1H16.9516C17.2031 0.999948 17.4453 1.09459 17.63 1.26508C17.8148 1.43557 17.9285 1.6694 17.9486 1.92L18.8256 12.84C18.8477 13.1152 18.8126 13.392 18.7225 13.6529C18.6323 13.9139 18.4892 14.1533 18.302 14.3562C18.1147 14.5592 17.8875 14.7211 17.6347 14.8319C17.3818 14.9427 17.1087 14.9999 16.8326 15H3.16665C2.89057 14.9999 2.6175 14.9427 2.36463 14.8319C2.11175 14.7211 1.88456 14.5592 1.69734 14.3562C1.51013 14.1533 1.36695 13.9139 1.27682 13.6529C1.18669 13.392 1.15156 13.1152 1.17365 12.84L2.04965 1.92H2.05065Z" stroke="#1F1F1F" stroke-width="2" stroke-linecap="round" stroke-linejoin="round"/>
</svg>
