<svg width="145" height="12" viewBox="0 0 145 12" fill="none" xmlns="http://www.w3.org/2000/svg">
<path d="M6.096 5.716L8.064 10H5.976L4.464 6.604H3.036L2.352 10H0.408L2.088 1.6H4.032L3.348 4.996H4.632L7.524 1.6H9.708L6.096 5.716ZM10.3019 3.544H12.1739L11.3699 7.468L15.2699 3.544H17.0339L15.7499 10H13.8659L14.6819 6.064L10.7819 10H9.00591L10.3019 3.544ZM24.5572 6.292C24.5572 6.588 24.5212 6.916 24.4492 7.276H19.5052C19.5692 8.156 20.1252 8.596 21.1732 8.596C21.5012 8.596 21.8132 8.544 22.1092 8.44C22.4132 8.336 22.6772 8.188 22.9012 7.996L23.6812 9.232C23.3212 9.52 22.9092 9.736 22.4452 9.88C21.9812 10.024 21.4932 10.096 20.9812 10.096C20.3172 10.096 19.7332 9.98 19.2292 9.748C18.7332 9.508 18.3492 9.168 18.0772 8.728C17.8132 8.288 17.6812 7.78 17.6812 7.204C17.6812 6.492 17.8412 5.852 18.1612 5.284C18.4892 4.708 18.9412 4.26 19.5172 3.94C20.0932 3.612 20.7492 3.448 21.4852 3.448C22.1092 3.448 22.6492 3.564 23.1052 3.796C23.5692 4.028 23.9252 4.36 24.1732 4.792C24.4292 5.224 24.5572 5.724 24.5572 6.292ZM21.4012 4.852C20.9612 4.852 20.5892 4.972 20.2852 5.212C19.9812 5.444 19.7652 5.768 19.6372 6.184H22.8412C22.8412 5.768 22.7092 5.444 22.4452 5.212C22.1892 4.972 21.8412 4.852 21.4012 4.852ZM30.7349 6.664C31.3109 6.896 31.5989 7.336 31.5989 7.984C31.5989 8.608 31.3389 9.1 30.8189 9.46C30.3069 9.82 29.5869 10 28.6589 10H25.1309L26.4269 3.544H29.6669C30.4109 3.544 30.9789 3.676 31.3709 3.94C31.7709 4.204 31.9709 4.584 31.9709 5.08C31.9709 5.44 31.8629 5.76 31.6469 6.04C31.4309 6.312 31.1269 6.52 30.7349 6.664ZM27.6149 6.196H29.0309C29.3669 6.196 29.6389 6.124 29.8469 5.98C30.0549 5.828 30.1589 5.632 30.1589 5.392C30.1589 5 29.8749 4.804 29.3069 4.804H27.8909L27.6149 6.196ZM28.6949 8.728C29.0629 8.728 29.3509 8.652 29.5589 8.5C29.7749 8.348 29.8829 8.144 29.8829 7.888C29.8829 7.688 29.8109 7.54 29.6669 7.444C29.5309 7.348 29.3189 7.3 29.0309 7.3H27.3989L27.1109 8.728H28.6949ZM33.5678 7.768C33.8878 7.768 34.1478 7.868 34.3478 8.068C34.5558 8.268 34.6598 8.528 34.6598 8.848C34.6598 9.016 34.6278 9.176 34.5638 9.328C34.5078 9.472 34.3998 9.668 34.2398 9.916L33.0398 11.848H31.8637L32.7878 9.916C32.6438 9.82 32.5278 9.696 32.4398 9.544C32.3598 9.384 32.3197 9.208 32.3197 9.016C32.3197 8.648 32.4398 8.348 32.6798 8.116C32.9198 7.884 33.2158 7.768 33.5678 7.768ZM48.6628 1.6L46.9828 10H45.0388L45.7228 6.58H41.9188L41.2348 10H39.2788L40.9588 1.6H42.9148L42.2548 4.9H46.0588L46.7188 1.6H48.6628ZM50.2394 3.544H52.1114L51.3074 7.468L55.2074 3.544H56.9714L55.6874 10H53.8034L54.6194 6.064L50.7194 10H48.9434L50.2394 3.544ZM66.0427 6.76L67.4707 10H65.2987L64.3747 7.516H63.5107L63.0067 10H61.1467L61.6387 7.516H60.7747L58.9147 10H56.6347L59.3827 6.604L58.1227 3.544H60.0667L61.0027 6.064H61.9267L62.4307 3.544H64.3027L63.7987 6.064H64.6507L66.6067 3.544H68.6587L66.0427 6.76ZM69.7394 3.544H71.5994L71.0954 6.064H73.9034L74.4074 3.544H76.2674L74.9834 10H73.1114L73.5914 7.588H70.7954L70.3154 10H68.4434L69.7394 3.544ZM78.0714 3.544H79.9434L79.1394 7.468L83.0394 3.544H84.8034L83.5194 10H81.6354L82.4514 6.064L78.5514 10H76.7754L78.0714 3.544ZM86.6027 3.544H88.4747L87.6707 7.468L91.5707 3.544H93.3347L92.0507 10H90.1667L90.9827 6.064L87.0827 10H85.3067L86.6027 3.544ZM90.0827 2.836C89.4587 2.836 88.9867 2.72 88.6667 2.488C88.3467 2.248 88.1867 1.9 88.1867 1.444C88.1867 1.276 88.2027 1.124 88.2347 0.987999H89.4467C89.4307 1.1 89.4227 1.176 89.4227 1.216C89.4227 1.432 89.4907 1.6 89.6267 1.72C89.7627 1.84 89.9507 1.9 90.1907 1.9C90.7587 1.9 91.1107 1.596 91.2467 0.987999H92.4827C92.3627 1.612 92.1027 2.076 91.7027 2.38C91.3107 2.684 90.7707 2.836 90.0827 2.836ZM102.84 6.664C103.416 6.896 103.704 7.336 103.704 7.984C103.704 8.608 103.444 9.1 102.924 9.46C102.412 9.82 101.692 10 100.764 10H97.2364L98.5324 3.544H101.772C102.516 3.544 103.084 3.676 103.476 3.94C103.876 4.204 104.076 4.584 104.076 5.08C104.076 5.44 103.968 5.76 103.752 6.04C103.536 6.312 103.232 6.52 102.84 6.664ZM99.7204 6.196H101.136C101.472 6.196 101.744 6.124 101.952 5.98C102.16 5.828 102.264 5.632 102.264 5.392C102.264 5 101.98 4.804 101.412 4.804H99.9964L99.7204 6.196ZM100.8 8.728C101.168 8.728 101.456 8.652 101.664 8.5C101.88 8.348 101.988 8.144 101.988 7.888C101.988 7.688 101.916 7.54 101.772 7.444C101.636 7.348 101.424 7.3 101.136 7.3H99.5044L99.2164 8.728H100.8ZM112.561 3.544L111.277 10H109.501L109.621 9.364C109.085 9.852 108.425 10.096 107.641 10.096C107.137 10.096 106.673 9.98 106.249 9.748C105.825 9.516 105.485 9.184 105.229 8.752C104.981 8.312 104.857 7.796 104.857 7.204C104.857 6.492 105.013 5.852 105.325 5.284C105.645 4.708 106.077 4.26 106.621 3.94C107.165 3.612 107.765 3.448 108.421 3.448C109.413 3.448 110.113 3.772 110.521 4.42L110.689 3.544H112.561ZM108.217 8.548C108.585 8.548 108.913 8.46 109.201 8.284C109.489 8.1 109.713 7.848 109.873 7.528C110.033 7.208 110.113 6.84 110.113 6.424C110.113 5.984 109.981 5.636 109.717 5.38C109.461 5.124 109.101 4.996 108.637 4.996C108.269 4.996 107.941 5.088 107.653 5.272C107.365 5.448 107.141 5.696 106.981 6.016C106.821 6.336 106.741 6.704 106.741 7.12C106.741 7.56 106.869 7.908 107.125 8.164C107.389 8.42 107.753 8.548 108.217 8.548ZM120.556 3.544L119.26 10H117.388L118.372 5.068H116.32L116.044 6.22C115.812 7.164 115.576 7.916 115.336 8.476C115.096 9.036 114.808 9.452 114.472 9.724C114.136 9.996 113.724 10.132 113.236 10.132C112.94 10.132 112.612 10.084 112.252 9.988L112.66 8.452C112.804 8.468 112.9 8.476 112.948 8.476C113.308 8.476 113.592 8.284 113.8 7.9C114.016 7.516 114.22 6.924 114.412 6.124L115.036 3.544H120.556ZM122.033 7.768C122.353 7.768 122.613 7.868 122.813 8.068C123.021 8.268 123.125 8.528 123.125 8.848C123.125 9.016 123.093 9.176 123.029 9.328C122.973 9.472 122.865 9.668 122.705 9.916L121.505 11.848H120.329L121.253 9.916C121.109 9.82 120.993 9.696 120.905 9.544C120.825 9.384 120.785 9.208 120.785 9.016C120.785 8.648 120.905 8.348 121.145 8.116C121.385 7.884 121.681 7.768 122.033 7.768ZM135.328 2.86L132.88 5.056C133.488 5.184 133.96 5.432 134.296 5.8C134.64 6.168 134.812 6.628 134.812 7.18C134.812 7.748 134.648 8.26 134.32 8.716C133.992 9.164 133.524 9.516 132.916 9.772C132.316 10.02 131.616 10.144 130.816 10.144C130.128 10.144 129.488 10.06 128.896 9.892C128.304 9.724 127.812 9.488 127.42 9.184L128.392 7.696C129.128 8.24 129.992 8.512 130.984 8.512C131.568 8.512 132.024 8.404 132.352 8.188C132.68 7.972 132.844 7.672 132.844 7.288C132.844 6.696 132.368 6.4 131.416 6.4H130.408L130.66 5.116L132.832 3.16H128.968L129.28 1.6H135.58L135.328 2.86ZM144.534 1.6L144.294 2.86L139.53 10H137.37L141.894 3.184H138.93L138.654 4.552H136.938L137.526 1.6H144.534Z" fill="#FDA3C4"/>
</svg>
