<svg width="81" height="24" viewBox="0 0 81 24" fill="none" xmlns="http://www.w3.org/2000/svg">
<path fill-rule="evenodd" clip-rule="evenodd" d="M20 11C20 6.032 15.968 2 11 2C6.032 2 2 6.032 2 11C2 15.968 6.032 20 11 20C15.968 20 20 15.968 20 11ZM18 11C18 14.867 14.867 18 11 18C7.132 18 4 14.867 4 11C4 7.132 7.132 4 11 4C14.867 4 18 7.132 18 11ZM18.6618 18.8937C18.3395 19.214 18.3379 19.735 18.6583 20.0574L20.315 21.7239C20.6353 22.0462 21.1563 22.0478 21.4786 21.7274L21.7289 21.4787C22.0512 21.1583 22.0527 20.6373 21.7323 20.315L20.0757 18.6484C19.7553 18.3261 19.2343 18.3246 18.912 18.6449L18.6618 18.8937Z" fill="#1F1F1F"/>
<path d="M48.7 8.6V17H46.768V10.184H42.976V17H41.044V8.6H48.7ZM53.6623 17.096C52.9823 17.096 52.3703 16.956 51.8263 16.676C51.2903 16.388 50.8703 15.992 50.5663 15.488C50.2623 14.984 50.1103 14.412 50.1103 13.772C50.1103 13.132 50.2623 12.56 50.5663 12.056C50.8703 11.552 51.2903 11.16 51.8263 10.88C52.3703 10.592 52.9823 10.448 53.6623 10.448C54.3423 10.448 54.9503 10.592 55.4863 10.88C56.0223 11.16 56.4423 11.552 56.7463 12.056C57.0503 12.56 57.2023 13.132 57.2023 13.772C57.2023 14.412 57.0503 14.984 56.7463 15.488C56.4423 15.992 56.0223 16.388 55.4863 16.676C54.9503 16.956 54.3423 17.096 53.6623 17.096ZM53.6623 15.56C54.1423 15.56 54.5343 15.4 54.8383 15.08C55.1503 14.752 55.3063 14.316 55.3063 13.772C55.3063 13.228 55.1503 12.796 54.8383 12.476C54.5343 12.148 54.1423 11.984 53.6623 11.984C53.1823 11.984 52.7863 12.148 52.4743 12.476C52.1623 12.796 52.0063 13.228 52.0063 13.772C52.0063 14.316 52.1623 14.752 52.4743 15.08C52.7863 15.4 53.1823 15.56 53.6623 15.56ZM58.4898 10.544H60.3498V14.384L63.4938 10.544H65.2098V17H63.3498V13.16L60.2178 17H58.4898V10.544ZM70.0814 17.096C69.3934 17.096 68.7734 16.956 68.2214 16.676C67.6774 16.388 67.2494 15.992 66.9374 15.488C66.6334 14.984 66.4814 14.412 66.4814 13.772C66.4814 13.132 66.6334 12.56 66.9374 12.056C67.2494 11.552 67.6774 11.16 68.2214 10.88C68.7734 10.592 69.3934 10.448 70.0814 10.448C70.7614 10.448 71.3534 10.592 71.8574 10.88C72.3694 11.16 72.7414 11.564 72.9734 12.092L71.5214 12.872C71.1854 12.28 70.7014 11.984 70.0694 11.984C69.5814 11.984 69.1774 12.144 68.8574 12.464C68.5374 12.784 68.3774 13.22 68.3774 13.772C68.3774 14.324 68.5374 14.76 68.8574 15.08C69.1774 15.4 69.5814 15.56 70.0694 15.56C70.7094 15.56 71.1934 15.264 71.5214 14.672L72.9734 15.464C72.7414 15.976 72.3694 16.376 71.8574 16.664C71.3534 16.952 70.7614 17.096 70.0814 17.096ZM76.9549 14.552H75.9829V17H74.1109V10.544H75.9829V13.052H76.9909L78.7429 10.544H80.7349L78.4789 13.64L80.8909 17H78.6829L76.9549 14.552Z" fill="#1F1F1F"/>
</svg>
